<svg aria-hidden="true" style="position: absolute; width: 0; height: 0; overflow: hidden;" version="1.1" xmlns="http://www.w3.org/2000/svg" xmlns:xlink="http://www.w3.org/1999/xlink">
<defs>
<symbol id="icon-breakfest" viewBox="0 0 36 32">
<path d="M7.687 1.451c0.457-0.254 0.96-0.401 1.475-0.431 0.139-0.016 0.278 0.014 0.4 0.086 0.037 0.139-0.319 0.816-1.394 1.38-0.455 0.253-0.956 0.398-1.469 0.425-0.139 0.016-0.278-0.014-0.4-0.086-0.037-0.139 0.313-0.809 1.387-1.373zM6.699 3.912c0.654-0.027 1.295-0.208 1.875-0.531 0.559-0.28 1.059-0.677 1.469-1.168 0.581-0.736 0.469-1.28 0.344-1.539-0.122-0.23-0.307-0.416-0.53-0.534s-0.474-0.163-0.72-0.129c-0.654 0.030-1.294 0.211-1.875 0.531-0.561 0.282-1.063 0.681-1.475 1.174-0.196 0.189-0.333 0.437-0.393 0.711s-0.038 0.561 0.061 0.821c0.122 0.23 0.307 0.416 0.529 0.534s0.474 0.163 0.721 0.129h-0.006z"></path>
<path d="M9.087 4.416c2.034-1.078 4.277-1.637 6.55-1.632 2.669-0.009 5.291 0.75 7.586 2.198s4.177 3.529 5.445 6.022l-26.537 13.931c-1.555-3.712-1.7-7.917-0.404-11.739s3.933-6.965 7.36-8.773v-0.007zM1.693 26.262l28.244-14.814-0.212-0.444c-1.903-3.876-5.161-6.808-9.075-8.166s-8.174-1.035-11.866 0.901c-3.692 1.935-6.524 5.329-7.888 9.453s-1.151 8.652 0.591 12.612l0.206 0.445v0.013z"></path>
<path d="M3.099 23.847c0.056 0.002 0.111-0.009 0.163-0.033 0.061-0.022 0.117-0.057 0.164-0.103s0.085-0.102 0.111-0.164c0.026-0.062 0.039-0.13 0.039-0.198s-0.013-0.136-0.039-0.198c-0.834-2.529-0.979-5.257-0.417-7.869s1.807-5.003 3.592-6.898c0.056-0.043 0.102-0.099 0.135-0.164s0.053-0.136 0.057-0.209c0.004-0.073-0.007-0.147-0.033-0.215s-0.066-0.129-0.116-0.179c-0.051-0.050-0.111-0.087-0.177-0.109s-0.136-0.028-0.204-0.019c-0.069 0.010-0.134 0.036-0.192 0.076s-0.107 0.093-0.143 0.156c-1.909 2.028-3.239 4.588-3.836 7.384s-0.437 5.714 0.461 8.418c0.033 0.095 0.093 0.177 0.171 0.235s0.171 0.089 0.267 0.090z"></path>
<path d="M34.924 31.27h-33.537c-0.106-0.014-0.204-0.068-0.275-0.153s-0.11-0.195-0.11-0.308c0-0.114 0.039-0.223 0.11-0.308s0.169-0.139 0.275-0.153h33.537c0.106 0.014 0.204 0.068 0.275 0.153s0.11 0.194 0.11 0.308c0 0.113-0.039 0.223-0.11 0.308s-0.169 0.139-0.275 0.153zM34.924 29.618h-33.537c-0.283 0.022-0.548 0.158-0.741 0.378s-0.3 0.511-0.3 0.812c0 0.301 0.107 0.591 0.3 0.812s0.458 0.356 0.741 0.379h33.537c0.283-0.022 0.548-0.158 0.741-0.379s0.301-0.511 0.301-0.812-0.107-0.591-0.301-0.812c-0.193-0.221-0.458-0.356-0.741-0.378z"></path>
<path d="M31.905 21.823l-0.625 5.267c-0.038 0.287-0.172 0.549-0.377 0.739s-0.469 0.295-0.742 0.295h-3.038c-0.273-0-0.536-0.105-0.742-0.295s-0.339-0.453-0.377-0.739l-0.625-5.267h6.525zM25.293 27.184c0.059 0.463 0.273 0.888 0.604 1.197s0.755 0.48 1.196 0.482h3.037c0.441-0.001 0.866-0.171 1.197-0.48s0.545-0.735 0.603-1.198l0.756-6.090h-8.125l0.756 6.090h-0.025z"></path>
<path d="M32.812 26.912c-0.050-0.009-0.098-0.025-0.144-0.046l-0.050 0.438c0 0.106-0.044 0.199-0.063 0.299l0.137 0.033c0.079 0.007 0.158 0.007 0.238 0 0.969 0 1.875-1.081 2.094-2.461 0.147-0.842-0.019-1.712-0.462-2.428-0.117-0.175-0.266-0.324-0.437-0.438s-0.363-0.19-0.563-0.225c-0.098-0.010-0.196-0.010-0.294 0l-0.094 0.75c0.054-0.006 0.109-0.006 0.162 0h0.125c0.222 0.051 0.417 0.191 0.544 0.391 0.334 0.56 0.455 1.233 0.338 1.884-0.156 1.061-0.888 1.944-1.531 1.831v-0.027z"></path>
<path d="M28.699 14.248c-0.057-0.028-0.118-0.043-0.18-0.045s-0.124 0.009-0.182 0.032c-0.058 0.023-0.111 0.059-0.156 0.104s-0.081 0.1-0.106 0.161c-0.744 1.785-0.362 2.607 0 3.317 0.196 0.346 0.299 0.741 0.299 1.144s-0.103 0.799-0.299 1.144c-0.026 0.061-0.039 0.127-0.041 0.193s0.010 0.133 0.033 0.195c0.023 0.062 0.058 0.118 0.102 0.165s0.097 0.085 0.155 0.11c0.058 0.025 0.119 0.039 0.181 0.040 0.093 0.001 0.185-0.027 0.263-0.082s0.139-0.132 0.175-0.223c0.245-0.479 0.369-1.017 0.362-1.562s-0.147-1.079-0.405-1.55c-0.294-0.63-0.525-1.134 0.037-2.488 0.026-0.060 0.041-0.125 0.043-0.191s-0.008-0.132-0.030-0.194-0.056-0.118-0.098-0.166c-0.043-0.048-0.094-0.086-0.151-0.113v0.007z"></path>
<path d="M26.706 14.248c-0.057-0.028-0.118-0.043-0.18-0.045s-0.124 0.009-0.182 0.032c-0.058 0.023-0.111 0.059-0.157 0.104s-0.081 0.1-0.106 0.161c-0.744 1.785-0.362 2.607 0 3.317 0.196 0.346 0.299 0.741 0.299 1.144s-0.103 0.799-0.299 1.144c-0.026 0.061-0.039 0.127-0.041 0.193s0.010 0.133 0.033 0.195c0.023 0.062 0.058 0.118 0.102 0.165s0.097 0.085 0.155 0.11c0.058 0.025 0.119 0.039 0.181 0.040 0.095 0.003 0.189-0.026 0.268-0.081s0.141-0.136 0.175-0.23c0.247-0.478 0.373-1.016 0.366-1.561s-0.146-1.079-0.404-1.55c-0.294-0.63-0.525-1.134 0.037-2.488 0.026-0.060 0.040-0.125 0.043-0.191s-0.008-0.132-0.030-0.194c-0.022-0.062-0.056-0.118-0.098-0.166s-0.094-0.086-0.151-0.113l-0.012 0.013z"></path>
<path d="M30.080 17.843c0.194 0.346 0.296 0.742 0.296 1.144s-0.102 0.798-0.296 1.144c-0.029 0.061-0.045 0.127-0.048 0.195s0.006 0.136 0.029 0.2c0.022 0.064 0.057 0.122 0.101 0.171s0.098 0.088 0.157 0.114 0.123 0.040 0.187 0.039c0.064-0.001 0.127-0.015 0.186-0.043s0.111-0.068 0.154-0.118c0.043-0.050 0.077-0.109 0.098-0.173 0.246-0.479 0.372-1.017 0.364-1.562s-0.148-1.079-0.408-1.55c-0.294-0.63-0.525-1.134 0.044-2.488 0.050-0.122 0.053-0.261 0.007-0.385s-0.136-0.224-0.251-0.278c-0.056-0.028-0.118-0.043-0.18-0.045s-0.124 0.009-0.182 0.032c-0.058 0.023-0.111 0.059-0.157 0.104s-0.081 0.1-0.106 0.161c-0.738 1.785-0.356 2.607 0 3.317l0.006 0.020z"></path>
<path d="M17.787 28.278v0.61h0.694v-0.544l5-1.373c0.114-0.034 0.212-0.111 0.278-0.216s0.093-0.231 0.078-0.356c-0.015-0.125-0.072-0.239-0.16-0.323s-0.202-0.131-0.32-0.134h-19.375c-0.118 0.004-0.231 0.052-0.318 0.137s-0.143 0.199-0.157 0.323 0.014 0.25 0.079 0.354c0.065 0.104 0.164 0.18 0.277 0.214l4.95 1.36v0.557h0.694v-0.663c-0.001-0.13-0.042-0.256-0.116-0.359s-0.178-0.177-0.296-0.212l-3.556-0.995h16.25l-3.569 0.975c-0.136 0.039-0.256 0.126-0.34 0.246s-0.127 0.268-0.122 0.417l0.031-0.020z"></path>
<path d="M16.868 24.696l1.181 0.517h1.806l-2.725-1.194c-2.231-0.959-4.725-0.959-6.956 0l-2.844 1.221h1.838l1.25-0.544c2.065-0.885 4.373-0.885 6.437 0h0.013z"></path>
</symbol>
<symbol id="icon-house" viewBox="0 0 28 32">
<path d="M26.934 31.337h-26.054v-27.29c0.001-0.892 0.375-1.747 1.038-2.378s1.562-0.986 2.5-0.987h0.076c0.938 0.001 1.837 0.356 2.501 0.987s1.037 1.486 1.038 2.378v2.552h11.759v-2.552c0.002-0.892 0.375-1.747 1.038-2.378s1.563-0.986 2.501-0.987h0.076c0.938 0.001 1.837 0.356 2.501 0.987s1.037 1.486 1.038 2.378v27.284l-0.011 0.005zM23.395 0.005h-0.076c-1.128 0.001-2.209 0.428-3.007 1.185s-1.247 1.785-1.25 2.857v1.869h-10.343v-1.869c0-1.074-0.449-2.103-1.247-2.862s-1.881-1.186-3.010-1.186h-0.076c-1.125 0.007-2.201 0.436-2.995 1.194s-1.239 1.784-1.241 2.853v27.952h27.502v-27.952c0-1.074-0.449-2.103-1.247-2.862s-1.881-1.186-3.010-1.186v0.005z"></path>
<path d="M2.578 26.824h5.52v2.324h-5.52v-2.324zM1.859 29.831h6.957v-3.696h-6.957v3.696z"></path>
<path d="M19.781 26.824h5.52v2.324h-5.52v-2.324zM19.062 29.831h6.957v-3.696h-6.957v3.696z"></path>
<path d="M5.638 6.636h-2.401v-2.811c0.021-0.289 0.156-0.561 0.379-0.759s0.517-0.308 0.822-0.308c0.305 0 0.599 0.11 0.822 0.308s0.358 0.469 0.379 0.759v2.811zM6.356 3.825c-0.061-0.44-0.287-0.843-0.638-1.136s-0.801-0.454-1.267-0.454c-0.466 0-0.917 0.161-1.267 0.454s-0.577 0.696-0.638 1.136v3.494h3.811v-3.494z"></path>
<path d="M24.544 6.636h-2.401v-2.811c0.020-0.289 0.156-0.561 0.379-0.759s0.517-0.308 0.822-0.308 0.599 0.11 0.822 0.308c0.223 0.198 0.358 0.469 0.379 0.759v2.811zM25.262 3.825c-0.061-0.44-0.287-0.843-0.638-1.136s-0.801-0.454-1.267-0.454-0.917 0.161-1.267 0.454c-0.351 0.292-0.577 0.696-0.638 1.136v3.494h3.811v-3.494z"></path>
<path d="M5.638 14.841h-2.401v-2.811c0.021-0.289 0.156-0.561 0.379-0.759s0.517-0.308 0.822-0.308c0.305 0 0.599 0.11 0.822 0.308s0.358 0.469 0.379 0.759v2.811zM6.356 12.030c-0.061-0.44-0.287-0.843-0.638-1.136s-0.801-0.454-1.267-0.454c-0.466 0-0.917 0.161-1.267 0.454s-0.577 0.696-0.638 1.136v3.494h3.811v-3.494z"></path>
<path d="M11.941 14.84h-2.406v-2.811c0-0.303 0.127-0.594 0.352-0.809s0.532-0.335 0.851-0.335c0.319 0 0.625 0.121 0.851 0.335s0.352 0.505 0.352 0.809v2.811zM12.66 12.030c0-0.485-0.202-0.949-0.563-1.292s-0.849-0.535-1.359-0.535c-0.51 0-0.998 0.193-1.359 0.535s-0.563 0.807-0.563 1.292v3.494h3.843v-3.494z"></path>
<path d="M18.245 14.84h-2.406v-2.811c0-0.303 0.127-0.594 0.352-0.809s0.532-0.335 0.851-0.335c0.319 0 0.625 0.121 0.851 0.335s0.352 0.505 0.352 0.809v2.811zM18.964 12.030c0-0.485-0.202-0.949-0.563-1.292s-0.849-0.535-1.359-0.535c-0.51 0-0.998 0.193-1.359 0.535s-0.563 0.807-0.563 1.292v3.494h3.843v-3.494z"></path>
<path d="M24.544 14.841h-2.401v-2.811c0.020-0.289 0.156-0.561 0.379-0.759s0.517-0.308 0.822-0.308 0.599 0.11 0.822 0.308c0.223 0.198 0.358 0.469 0.379 0.759v2.811zM25.262 12.030c-0.061-0.44-0.287-0.843-0.638-1.136s-0.801-0.454-1.267-0.454-0.917 0.161-1.267 0.454c-0.351 0.292-0.577 0.696-0.638 1.136v3.494h3.811v-3.494z"></path>
<path d="M3.237 19.059c0.021-0.289 0.156-0.561 0.379-0.759s0.517-0.308 0.822-0.308c0.305 0 0.599 0.11 0.822 0.308s0.358 0.469 0.379 0.759v2.805h-2.401v-2.805zM2.513 22.538h3.811v-3.478c-0.061-0.44-0.287-0.843-0.638-1.136s-0.801-0.454-1.267-0.454-0.917 0.161-1.267 0.454c-0.351 0.293-0.577 0.696-0.638 1.136v3.478z"></path>
<path d="M9.535 19.059c0-0.303 0.127-0.594 0.352-0.809s0.532-0.335 0.851-0.335c0.319 0 0.625 0.12 0.851 0.335s0.352 0.506 0.352 0.809v2.805h-2.406v-2.805zM8.817 22.548h3.843v-3.489c0-0.485-0.202-0.949-0.563-1.292s-0.849-0.535-1.359-0.535-0.998 0.192-1.359 0.535c-0.36 0.343-0.563 0.808-0.563 1.292v3.489z"></path>
<path d="M15.839 19.059c0-0.303 0.127-0.594 0.352-0.809s0.532-0.335 0.851-0.335c0.319 0 0.625 0.12 0.851 0.335s0.352 0.506 0.352 0.809v2.805h-2.406v-2.805zM15.121 22.548h3.843v-3.489c0-0.485-0.202-0.949-0.563-1.292s-0.849-0.535-1.359-0.535c-0.51 0-0.998 0.192-1.359 0.535s-0.563 0.808-0.563 1.292v3.489z"></path>
<path d="M22.143 19.059c0.021-0.289 0.156-0.561 0.379-0.759s0.517-0.308 0.822-0.308 0.599 0.11 0.822 0.308c0.223 0.198 0.358 0.469 0.379 0.759v2.805h-2.401v-2.805zM21.425 22.548h3.811v-3.489c-0.061-0.44-0.287-0.843-0.638-1.136s-0.801-0.454-1.267-0.454-0.917 0.161-1.267 0.454c-0.35 0.293-0.577 0.696-0.638 1.136v3.489z"></path>
<path d="M10.531 30.654h0.719v-4.074h2.417v4.074h0.719v-4.074h2.417v4.074h0.718v-4.757h-6.99v4.757z"></path>
<path d="M1.587 9.1h24.628v-0.683h-24.628v0.683z"></path>
<path d="M18.349 3.929c0.007-0.229 0.031-0.457 0.071-0.683h-9.037c0.040 0.226 0.064 0.454 0.071 0.683h8.895z"></path>
<path d="M1.587 25.043h24.628v-0.683h-24.628v0.683z"></path>
</symbol>
<symbol id="icon-and" viewBox="0 0 38 32">
<path d="M2.315 11.401c0.302 0.373 0.705 0.581 1.123 0.58 0.215-0.002 0.428-0.060 0.626-0.171s0.375-0.272 0.523-0.473l0.717-0.947c0.268 0.079 0.546 0.068 0.81-0.031s0.503-0.284 0.695-0.536l1.545-2.037 1.083-1.405-0.868-0.052-2.207 2.913c-0.129 0.165-0.292 0.279-0.469 0.329s-0.363 0.034-0.534-0.046c-0.060-0.030-0.126-0.036-0.189-0.019s-0.121 0.057-0.167 0.116l-0.853 1.134c-0.089 0.115-0.194 0.206-0.31 0.269s-0.241 0.094-0.367 0.094c-0.126 0-0.251-0.032-0.367-0.094s-0.222-0.154-0.31-0.269c-0.089-0.106-0.159-0.236-0.206-0.38-0.026-0.077-0.068-0.142-0.123-0.188s-0.118-0.070-0.183-0.070h-0.080c-0.167-0-0.331-0.051-0.479-0.149s-0.276-0.239-0.374-0.412c-0.044-0.071-0.081-0.149-0.11-0.232-0.267-0.073-0.522-0.206-0.752-0.393 0.030 0.522 0.204 1.013 0.489 1.386s0.665 0.604 1.070 0.651c0.075 0.157 0.164 0.302 0.266 0.432z"></path>
<path d="M12.862 0.012h-0.326c-0.21-0.016-0.421-0.016-0.632 0-1.279 0.135-5.201 0.999-5.367 1.031-0.166 0.071-0.883 0.503-5.587 3.326-0.347 0.225-0.625 0.594-0.789 1.048s-0.204 0.965-0.115 1.451c0.090 0.486 0.305 0.92 0.61 1.23s0.683 0.479 1.072 0.48c0.265 0.001 0.526-0.079 0.762-0.232l4.479-2.862 4.92 0.058 1.896 0.87-3.511 0.645c-0.434 0.074-0.83 0.356-1.108 0.789s-0.419 0.987-0.393 1.548c0.026 0.561 0.217 1.089 0.533 1.477s0.736 0.607 1.173 0.614h0.206l6.43-1.115c0.231-0.033 0.465-0.018 0.692 0.045l2.131 0.599c0.85 0.238 1.727 0.277 2.588 0.116l0.627-0.116v-0.857l-0.727 0.135c-0.773 0.144-1.559 0.111-2.322-0.097l-2.127-0.599c-0.301-0.084-0.612-0.104-0.918-0.058l-6.435 1.121c-0.139 0.019-0.28 0.002-0.415-0.050s-0.259-0.137-0.368-0.25c-0.109-0.114-0.199-0.254-0.265-0.413s-0.107-0.333-0.121-0.512c-0.016-0.177-0.005-0.357 0.034-0.529s0.103-0.332 0.189-0.472c0.087-0.14 0.194-0.256 0.316-0.342s0.256-0.14 0.394-0.159l4.825-0.909c0.073-0.013 0.14-0.056 0.191-0.124s0.083-0.156 0.090-0.25c0.008-0.094-0.009-0.19-0.048-0.27s-0.098-0.142-0.167-0.175l-3.2-1.502c-0.037-0.006-0.074-0.006-0.11 0l-5.056-0.058c-0.052 0.001-0.103 0.016-0.15 0.045l-4.549 2.907c-0.256 0.155-0.549 0.175-0.815 0.054s-0.486-0.372-0.609-0.699c-0.123-0.32-0.143-0.689-0.055-1.028s0.275-0.62 0.522-0.783l5.452-3.261c0.426-0.090 4.083-0.889 5.271-1.012 0.182-0.016 0.365-0.016 0.547 0h0.341c1.179 0.032 5.281 0.251 8.496 1.689h0.055l1.805 0.4v-0.864l-1.675-0.367c-3.21-1.424-7.132-1.676-8.672-1.721l-0.015 0.006z"></path>
<path d="M37.458 11.749h-9.389v-10.435h9.389v10.435zM37.789 0.463h-10.031c-0.088 0-0.172 0.045-0.234 0.125s-0.097 0.188-0.097 0.301v11.286c0 0.113 0.035 0.221 0.097 0.301s0.146 0.125 0.234 0.125h10.031c0.087-0.002 0.171-0.047 0.233-0.126s0.097-0.187 0.098-0.299v-11.286c-0.001-0.112-0.037-0.22-0.098-0.299s-0.145-0.125-0.233-0.126z"></path>
<path d="M24.202 1.088c-0.086 0-0.169 0.044-0.23 0.123s-0.095 0.185-0.095 0.296l-0.050 10.035c-0.001 0.055 0.007 0.11 0.023 0.161s0.041 0.097 0.072 0.135c0.030 0.041 0.065 0.073 0.105 0.095s0.083 0.034 0.126 0.034h2.593v-0.851h-2.257l0.045-9.185h2.212v-0.825h-2.538l-0.005-0.019z"></path>
<path d="M2.31 31.033c0.389-0.641 0.893-1.15 1.47-1.482 0.066-0.038 0.121-0.1 0.16-0.178s0.060-0.168 0.060-0.261v-1.289h14.811v1.289c-0 0.092 0.020 0.182 0.058 0.259s0.093 0.14 0.157 0.179c0.578 0.329 1.083 0.839 1.47 1.482h-18.186zM19.563 28.816v-1.47c-0.001-0.128-0.041-0.25-0.112-0.34s-0.165-0.142-0.265-0.143h-15.548c-0.099 0.002-0.194 0.053-0.265 0.143s-0.11 0.212-0.112 0.34v1.47c-0.537 0.361-1.801 1.36-1.801 2.701 0.001 0.128 0.041 0.25 0.112 0.34s0.165 0.142 0.265 0.143h19.159c0.102-0.005 0.198-0.061 0.269-0.156s0.109-0.222 0.107-0.353c0-1.289-1.259-2.314-1.796-2.675h-0.015z"></path>
<path d="M11.363 13.798h0.085c0.295 0.002 0.582 0.13 0.815 0.363s0.4 0.559 0.474 0.926h-2.663c0.073-0.368 0.24-0.694 0.473-0.928s0.52-0.36 0.816-0.361zM13.163 16.029c0.102-0.005 0.198-0.061 0.269-0.156s0.109-0.222 0.107-0.353c0-0.353-0.054-0.702-0.159-1.029s-0.259-0.622-0.453-0.872c-0.194-0.25-0.425-0.448-0.678-0.583s-0.526-0.205-0.8-0.205h-0.085c-0.276 0.001-0.549 0.072-0.804 0.209s-0.486 0.337-0.68 0.589c-0.194 0.252-0.348 0.551-0.452 0.88s-0.157 0.681-0.155 1.035c0 0.128 0.040 0.251 0.11 0.342s0.166 0.142 0.266 0.142h3.516z"></path>
<path d="M11.353 17.524h0.075c3.18 0 6.881 1.992 7.082 7.56h-14.214c0.206-5.524 3.887-7.535 7.057-7.56zM3.554 25.568c-0.001 0.064 0.009 0.127 0.027 0.186s0.046 0.113 0.081 0.158c0.035 0.045 0.077 0.081 0.123 0.105s0.095 0.036 0.145 0.035h14.981c0.1 0 0.195-0.051 0.266-0.141s0.11-0.214 0.11-0.342c0-6.652-4.228-9.023-7.844-9.023h-0.080c-3.887 0.032-7.809 2.836-7.809 9.023z"></path>
<path d="M5.164 24.627h0.070c0.088 0.001 0.173-0.038 0.241-0.11s0.114-0.172 0.13-0.283c0.17-1 0.524-1.932 1.034-2.717s1.16-1.401 1.895-1.795c0.045-0.026 0.086-0.064 0.12-0.111s0.060-0.102 0.077-0.162c0.017-0.060 0.024-0.124 0.021-0.188s-0.015-0.126-0.037-0.184c-0.043-0.115-0.12-0.204-0.214-0.247s-0.197-0.038-0.288 0.015c-0.845 0.453-1.592 1.164-2.175 2.071s-0.985 1.984-1.171 3.137c-0.010 0.062-0.011 0.126-0.001 0.189s0.029 0.122 0.056 0.175 0.063 0.098 0.104 0.133c0.041 0.035 0.088 0.059 0.136 0.070v0.006z"></path>
<path d="M18.099 28.681h-13.406c-0.1 0-0.195 0.051-0.266 0.141s-0.11 0.214-0.11 0.342 0.040 0.251 0.11 0.342c0.071 0.091 0.166 0.142 0.266 0.142h13.406c0.1 0 0.195-0.051 0.266-0.142s0.11-0.214 0.11-0.342-0.040-0.251-0.11-0.342c-0.070-0.091-0.166-0.141-0.266-0.141z"></path>
</symbol>
</defs>
</svg>
